<svg xmlns="http://www.w3.org/2000/svg" xmlns:xlink="http://www.w3.org/1999/xlink" width="2500" zoomAndPan="magnify" viewBox="0 0 1874.88 562.499983" height="750" preserveAspectRatio="xMidYMid meet" version="1.0"><defs><g/><clipPath id="d364fa1357"><path d="M 12.816406 164.128906 L 349.265625 164.128906 L 349.265625 392 L 12.816406 392 Z M 12.816406 164.128906 " clip-rule="nonzero"/></clipPath><clipPath id="55ecd1d51c"><rect x="0" width="1466" y="0" height="383"/></clipPath></defs><g clip-path="url(#d364fa1357)"><path fill="#41ae96" d="M 230.847656 364.191406 L 216.234375 375.683594 C 179.28125 404.738281 124.949219 392.507812 104.222656 350.316406 L 12.816406 164.410156 L 50.445312 164.410156 C 79.226562 164.410156 105.488281 180.679688 118.097656 206.550781 L 178.371094 330.171875 C 182.761719 339.175781 189.183594 347.023438 197.238281 352.976562 C 205.332031 358.953125 216.425781 364.070312 230.417969 363.671875 C 227.175781 359.589844 224.316406 355.226562 221.910156 350.324219 L 130.496094 164.410156 L 168.128906 164.410156 C 196.910156 164.410156 223.171875 180.679688 235.777344 206.550781 L 296.054688 330.171875 C 300.445312 339.175781 306.867188 347.023438 314.921875 352.976562 C 323.234375 359.117188 334.71875 364.355469 349.261719 363.625 L 333.910156 375.683594 C 301.449219 401.21875 255.5625 394.753906 230.847656 364.191406 Z M 308.050781 243.324219 L 349.304688 164.148438 L 246.25 164.175781 L 286.027344 243.175781 C 290.5625 252.1875 303.394531 252.273438 308.050781 243.324219 Z M 308.050781 243.324219 " fill-opacity="1" fill-rule="nonzero"/></g><g transform="matrix(1, 0, 0, 1, 388, 86)"><g clip-path="url(#55ecd1d51c)"><g fill="#30294e" fill-opacity="1"><g transform="translate(6.275301, 285.245952)"><g><path d="M 275.890625 -188.40625 L 226.78125 0 L 171.21875 0 L 141.171875 -123.984375 L 110.03125 0 L 54.484375 0 L 6.703125 -188.40625 L 55.828125 -188.40625 L 82.921875 -51.265625 L 116.46875 -188.40625 L 166.921875 -188.40625 L 199.140625 -51.265625 L 226.515625 -188.40625 Z M 275.890625 -188.40625 "/></g></g></g><g fill="#30294e" fill-opacity="1"><g transform="translate(288.580429, 285.245952)"><g><path d="M 157.796875 -77.296875 C 157.796875 -72.992188 157.53125 -68.519531 157 -63.875 L 53.140625 -63.875 C 53.859375 -54.570312 56.851562 -47.457031 62.125 -42.53125 C 67.40625 -37.613281 73.894531 -35.15625 81.59375 -35.15625 C 93.039062 -35.15625 101 -39.988281 105.46875 -49.65625 L 154.3125 -49.65625 C 151.8125 -39.8125 147.296875 -30.953125 140.765625 -23.078125 C 134.234375 -15.203125 126.046875 -9.03125 116.203125 -4.5625 C 106.367188 -0.09375 95.367188 2.140625 83.203125 2.140625 C 68.523438 2.140625 55.460938 -0.988281 44.015625 -7.25 C 32.566406 -13.507812 23.617188 -22.453125 17.171875 -34.078125 C 10.734375 -45.710938 7.515625 -59.3125 7.515625 -74.875 C 7.515625 -90.4375 10.6875 -104.03125 17.03125 -115.65625 C 23.382812 -127.289062 32.285156 -136.238281 43.734375 -142.5 C 55.191406 -148.769531 68.347656 -151.90625 83.203125 -151.90625 C 97.691406 -151.90625 110.570312 -148.863281 121.84375 -142.78125 C 133.113281 -136.695312 141.921875 -128.015625 148.265625 -116.734375 C 154.617188 -105.460938 157.796875 -92.316406 157.796875 -77.296875 Z M 110.84375 -89.375 C 110.84375 -97.238281 108.15625 -103.5 102.78125 -108.15625 C 97.414062 -112.8125 90.707031 -115.140625 82.65625 -115.140625 C 74.96875 -115.140625 68.484375 -112.898438 63.203125 -108.421875 C 57.921875 -103.953125 54.65625 -97.601562 53.40625 -89.375 Z M 110.84375 -89.375 "/></g></g></g><g fill="#30294e" fill-opacity="1"><g transform="translate(453.884543, 285.245952)"><g><path d="M 62.53125 -128.546875 C 66.820312 -135.523438 72.992188 -141.160156 81.046875 -145.453125 C 89.097656 -149.753906 98.3125 -151.90625 108.6875 -151.90625 C 121.03125 -151.90625 132.210938 -148.769531 142.234375 -142.5 C 152.253906 -136.238281 160.171875 -127.289062 165.984375 -115.65625 C 171.804688 -104.03125 174.71875 -90.523438 174.71875 -75.140625 C 174.71875 -59.753906 171.804688 -46.203125 165.984375 -34.484375 C 160.171875 -22.765625 152.253906 -13.726562 142.234375 -7.375 C 132.210938 -1.03125 121.03125 2.140625 108.6875 2.140625 C 98.132812 2.140625 88.921875 0.0390625 81.046875 -4.15625 C 73.171875 -8.363281 67 -13.957031 62.53125 -20.9375 L 62.53125 0 L 16.640625 0 L 16.640625 -198.59375 L 62.53125 -198.59375 Z M 128.015625 -75.140625 C 128.015625 -86.597656 124.835938 -95.585938 118.484375 -102.109375 C 112.128906 -108.640625 104.300781 -111.90625 95 -111.90625 C 85.875 -111.90625 78.132812 -108.59375 71.78125 -101.96875 C 65.4375 -95.351562 62.265625 -86.320312 62.265625 -74.875 C 62.265625 -63.425781 65.4375 -54.390625 71.78125 -47.765625 C 78.132812 -41.148438 85.875 -37.84375 95 -37.84375 C 104.125 -37.84375 111.90625 -41.195312 118.34375 -47.90625 C 124.789062 -54.613281 128.015625 -63.691406 128.015625 -75.140625 Z M 128.015625 -75.140625 "/></g></g></g><g fill="#30294e" fill-opacity="1"><g transform="translate(636.094795, 285.245952)"><g><path d="M 87.21875 -188.40625 C 107.082031 -188.40625 124.4375 -184.46875 139.28125 -176.59375 C 154.132812 -168.71875 165.628906 -157.664062 173.765625 -143.4375 C 181.910156 -129.21875 185.984375 -112.804688 185.984375 -94.203125 C 185.984375 -75.773438 181.910156 -59.398438 173.765625 -45.078125 C 165.628906 -30.765625 154.09375 -19.671875 139.15625 -11.796875 C 124.21875 -3.929688 106.90625 0 87.21875 0 L 16.640625 0 L 16.640625 -188.40625 Z M 84.265625 -39.71875 C 101.617188 -39.71875 115.125 -44.457031 124.78125 -53.9375 C 134.445312 -63.425781 139.28125 -76.847656 139.28125 -94.203125 C 139.28125 -111.554688 134.445312 -125.0625 124.78125 -134.71875 C 115.125 -144.382812 101.617188 -149.21875 84.265625 -149.21875 L 62.53125 -149.21875 L 62.53125 -39.71875 Z M 84.265625 -39.71875 "/></g></g></g><g fill="#30294e" fill-opacity="1"><g transform="translate(831.185884, 285.245952)"><g><path d="M 39.71875 -165.3125 C 31.664062 -165.3125 25.085938 -167.679688 19.984375 -172.421875 C 14.890625 -177.171875 12.34375 -183.035156 12.34375 -190.015625 C 12.34375 -197.171875 14.890625 -203.117188 19.984375 -207.859375 C 25.085938 -212.597656 31.664062 -214.96875 39.71875 -214.96875 C 47.59375 -214.96875 54.078125 -212.597656 59.171875 -207.859375 C 64.273438 -203.117188 66.828125 -197.171875 66.828125 -190.015625 C 66.828125 -183.035156 64.273438 -177.171875 59.171875 -172.421875 C 54.078125 -167.679688 47.59375 -165.3125 39.71875 -165.3125 Z M 62.53125 -149.75 L 62.53125 0 L 16.640625 0 L 16.640625 -149.75 Z M 62.53125 -149.75 "/></g></g></g><g fill="#30294e" fill-opacity="1"><g transform="translate(910.349419, 285.245952)"><g><path d="M 62.53125 -124.796875 C 67.894531 -133.023438 74.601562 -139.507812 82.65625 -144.25 C 90.707031 -148.988281 99.65625 -151.359375 109.5 -151.359375 L 109.5 -102.78125 L 96.890625 -102.78125 C 85.429688 -102.78125 76.835938 -100.320312 71.109375 -95.40625 C 65.390625 -90.488281 62.53125 -81.859375 62.53125 -69.515625 L 62.53125 0 L 16.640625 0 L 16.640625 -149.75 L 62.53125 -149.75 Z M 62.53125 -124.796875 "/></g></g></g><g fill="#30294e" fill-opacity="1"><g transform="translate(1025.203627, 285.245952)"><g><path d="M 157.796875 -77.296875 C 157.796875 -72.992188 157.53125 -68.519531 157 -63.875 L 53.140625 -63.875 C 53.859375 -54.570312 56.851562 -47.457031 62.125 -42.53125 C 67.40625 -37.613281 73.894531 -35.15625 81.59375 -35.15625 C 93.039062 -35.15625 101 -39.988281 105.46875 -49.65625 L 154.3125 -49.65625 C 151.8125 -39.8125 147.296875 -30.953125 140.765625 -23.078125 C 134.234375 -15.203125 126.046875 -9.03125 116.203125 -4.5625 C 106.367188 -0.09375 95.367188 2.140625 83.203125 2.140625 C 68.523438 2.140625 55.460938 -0.988281 44.015625 -7.25 C 32.566406 -13.507812 23.617188 -22.453125 17.171875 -34.078125 C 10.734375 -45.710938 7.515625 -59.3125 7.515625 -74.875 C 7.515625 -90.4375 10.6875 -104.03125 17.03125 -115.65625 C 23.382812 -127.289062 32.285156 -136.238281 43.734375 -142.5 C 55.191406 -148.769531 68.347656 -151.90625 83.203125 -151.90625 C 97.691406 -151.90625 110.570312 -148.863281 121.84375 -142.78125 C 133.113281 -136.695312 141.921875 -128.015625 148.265625 -116.734375 C 154.617188 -105.460938 157.796875 -92.316406 157.796875 -77.296875 Z M 110.84375 -89.375 C 110.84375 -97.238281 108.15625 -103.5 102.78125 -108.15625 C 97.414062 -112.8125 90.707031 -115.140625 82.65625 -115.140625 C 74.96875 -115.140625 68.484375 -112.898438 63.203125 -108.421875 C 57.921875 -103.953125 54.65625 -97.601562 53.40625 -89.375 Z M 110.84375 -89.375 "/></g></g></g><g fill="#30294e" fill-opacity="1"><g transform="translate(1190.50774, 285.245952)"><g><path d="M 7.515625 -74.875 C 7.515625 -90.4375 10.6875 -104.03125 17.03125 -115.65625 C 23.382812 -127.289062 32.242188 -136.238281 43.609375 -142.5 C 54.972656 -148.769531 67.988281 -151.90625 82.65625 -151.90625 C 101.445312 -151.90625 117.148438 -146.984375 129.765625 -137.140625 C 142.378906 -127.296875 150.648438 -113.429688 154.578125 -95.546875 L 105.734375 -95.546875 C 101.617188 -106.992188 93.660156 -112.71875 81.859375 -112.71875 C 73.441406 -112.71875 66.726562 -109.453125 61.71875 -102.921875 C 56.71875 -96.390625 54.21875 -87.039062 54.21875 -74.875 C 54.21875 -62.707031 56.71875 -53.359375 61.71875 -46.828125 C 66.726562 -40.296875 73.441406 -37.03125 81.859375 -37.03125 C 93.660156 -37.03125 101.617188 -42.757812 105.734375 -54.21875 L 154.578125 -54.21875 C 150.648438 -36.675781 142.332031 -22.894531 129.625 -12.875 C 116.925781 -2.863281 101.269531 2.140625 82.65625 2.140625 C 67.988281 2.140625 54.972656 -0.988281 43.609375 -7.25 C 32.242188 -13.507812 23.382812 -22.453125 17.03125 -34.078125 C 10.6875 -45.710938 7.515625 -59.3125 7.515625 -74.875 Z M 7.515625 -74.875 "/></g></g></g><g fill="#30294e" fill-opacity="1"><g transform="translate(1352.860006, 285.245952)"><g><path d="M 100.109375 -38.921875 L 100.109375 0 L 76.75 0 C 60.113281 0 47.144531 -4.066406 37.84375 -12.203125 C 28.539062 -20.347656 23.890625 -33.632812 23.890625 -52.0625 L 23.890625 -111.640625 L 5.640625 -111.640625 L 5.640625 -149.75 L 23.890625 -149.75 L 23.890625 -186.25 L 69.78125 -186.25 L 69.78125 -149.75 L 99.828125 -149.75 L 99.828125 -111.640625 L 69.78125 -111.640625 L 69.78125 -51.53125 C 69.78125 -47.050781 70.851562 -43.828125 73 -41.859375 C 75.144531 -39.898438 78.722656 -38.921875 83.734375 -38.921875 Z M 100.109375 -38.921875 "/></g></g></g></g></g></svg>