<svg xmlns="http://www.w3.org/2000/svg" xmlns:xlink="http://www.w3.org/1999/xlink" width="2500" zoomAndPan="magnify" viewBox="0 0 1874.88 562.499983" height="750" preserveAspectRatio="xMidYMid meet" version="1.0"><defs><g/><clipPath id="a2cbd91996"><path d="M 12.816406 164.148438 L 349.265625 164.148438 L 349.265625 392 L 12.816406 392 Z M 12.816406 164.148438 " clip-rule="nonzero"/></clipPath><clipPath id="962ff6635f"><rect x="0" width="1466" y="0" height="383"/></clipPath></defs><g clip-path="url(#a2cbd91996)"><path fill="#41ae96" d="M 230.816406 364.183594 L 216.207031 375.671875 C 179.257812 404.722656 124.933594 392.496094 104.210938 350.308594 L 12.816406 164.425781 L 50.441406 164.425781 C 79.21875 164.425781 105.476562 180.695312 118.082031 206.5625 L 178.347656 330.164062 C 182.738281 339.167969 189.160156 347.015625 197.210938 352.964844 C 205.304688 358.945312 216.398438 364.058594 230.386719 363.660156 C 227.148438 359.582031 224.285156 355.21875 221.882812 350.316406 L 130.480469 164.425781 L 168.105469 164.425781 C 196.882812 164.425781 223.140625 180.695312 235.746094 206.5625 L 296.015625 330.164062 C 300.402344 339.167969 306.828125 347.015625 314.878906 352.964844 C 323.191406 359.109375 334.671875 364.347656 349.214844 363.613281 L 333.867188 375.671875 C 301.410156 401.203125 255.527344 394.742188 230.816406 364.183594 Z M 308.011719 243.332031 L 349.257812 164.167969 L 246.214844 164.195312 L 285.992188 243.179688 C 290.523438 252.191406 303.355469 252.28125 308.011719 243.332031 Z M 308.011719 243.332031 " fill-opacity="1" fill-rule="nonzero"/></g><g transform="matrix(1, 0, 0, 1, 388, 86)"><g clip-path="url(#962ff6635f)"><g fill="#ffffff" fill-opacity="1"><g transform="translate(6.213593, 285.231338)"><g><path d="M 275.84375 -188.359375 L 226.734375 0 L 171.1875 0 L 141.140625 -123.96875 L 110.015625 0 L 54.46875 0 L 6.703125 -188.359375 L 55.8125 -188.359375 L 82.90625 -51.25 L 116.453125 -188.359375 L 166.90625 -188.359375 L 199.09375 -51.25 L 226.46875 -188.359375 Z M 275.84375 -188.359375 "/></g></g></g><g fill="#ffffff" fill-opacity="1"><g transform="translate(288.473026, 285.231338)"><g><path d="M 157.78125 -77.28125 C 157.78125 -72.988281 157.507812 -68.515625 156.96875 -63.859375 L 53.125 -63.859375 C 53.84375 -54.554688 56.835938 -47.445312 62.109375 -42.53125 C 67.390625 -37.613281 73.878906 -35.15625 81.578125 -35.15625 C 93.023438 -35.15625 100.984375 -39.984375 105.453125 -49.640625 L 154.28125 -49.640625 C 151.78125 -39.796875 147.265625 -30.9375 140.734375 -23.0625 C 134.203125 -15.195312 126.015625 -9.03125 116.171875 -4.5625 C 106.335938 -0.09375 95.34375 2.140625 83.1875 2.140625 C 68.507812 2.140625 55.445312 -0.988281 44 -7.25 C 32.550781 -13.507812 23.609375 -22.453125 17.171875 -34.078125 C 10.734375 -45.703125 7.515625 -59.296875 7.515625 -74.859375 C 7.515625 -90.421875 10.6875 -104.015625 17.03125 -115.640625 C 23.382812 -127.273438 32.285156 -136.222656 43.734375 -142.484375 C 55.179688 -148.742188 68.332031 -151.875 83.1875 -151.875 C 97.675781 -151.875 110.550781 -148.832031 121.8125 -142.75 C 133.082031 -136.664062 141.894531 -127.988281 148.25 -116.71875 C 154.601562 -105.445312 157.78125 -92.300781 157.78125 -77.28125 Z M 110.8125 -89.359375 C 110.8125 -97.222656 108.128906 -103.476562 102.765625 -108.125 C 97.398438 -112.78125 90.691406 -115.109375 82.640625 -115.109375 C 74.953125 -115.109375 68.46875 -112.875 63.1875 -108.40625 C 57.914062 -103.9375 54.648438 -97.585938 53.390625 -89.359375 Z M 110.8125 -89.359375 "/></g></g></g><g fill="#ffffff" fill-opacity="1"><g transform="translate(453.750383, 285.231338)"><g><path d="M 62.515625 -128.53125 C 66.804688 -135.507812 72.976562 -141.144531 81.03125 -145.4375 C 89.082031 -149.726562 98.296875 -151.875 108.671875 -151.875 C 121.015625 -151.875 132.191406 -148.742188 142.203125 -142.484375 C 152.222656 -136.222656 160.140625 -127.273438 165.953125 -115.640625 C 171.773438 -104.015625 174.6875 -90.507812 174.6875 -75.125 C 174.6875 -59.75 171.773438 -46.203125 165.953125 -34.484375 C 160.140625 -22.765625 152.222656 -13.726562 142.203125 -7.375 C 132.191406 -1.03125 121.015625 2.140625 108.671875 2.140625 C 98.117188 2.140625 88.90625 0.0390625 81.03125 -4.15625 C 73.164062 -8.363281 66.992188 -13.953125 62.515625 -20.921875 L 62.515625 0 L 16.640625 0 L 16.640625 -198.5625 L 62.515625 -198.5625 Z M 128 -75.125 C 128 -86.582031 124.820312 -95.570312 118.46875 -102.09375 C 112.113281 -108.625 104.285156 -111.890625 94.984375 -111.890625 C 85.859375 -111.890625 78.117188 -108.578125 71.765625 -101.953125 C 65.421875 -95.335938 62.25 -86.304688 62.25 -74.859375 C 62.25 -63.410156 65.421875 -54.375 71.765625 -47.75 C 78.117188 -41.132812 85.859375 -37.828125 94.984375 -37.828125 C 104.109375 -37.828125 111.890625 -41.179688 118.328125 -47.890625 C 124.773438 -54.597656 128 -63.675781 128 -75.125 Z M 128 -75.125 "/></g></g></g><g fill="#ffffff" fill-opacity="1"><g transform="translate(635.931143, 285.231338)"><g><path d="M 87.203125 -188.359375 C 107.054688 -188.359375 124.40625 -184.421875 139.25 -176.546875 C 154.101562 -168.679688 165.597656 -157.640625 173.734375 -143.421875 C 181.878906 -129.203125 185.953125 -112.789062 185.953125 -94.1875 C 185.953125 -75.757812 181.878906 -59.390625 173.734375 -45.078125 C 165.597656 -30.765625 154.0625 -19.671875 139.125 -11.796875 C 124.1875 -3.929688 106.878906 0 87.203125 0 L 16.640625 0 L 16.640625 -188.359375 Z M 84.25 -39.71875 C 101.601562 -39.71875 115.109375 -44.457031 124.765625 -53.9375 C 134.429688 -63.414062 139.265625 -76.832031 139.265625 -94.1875 C 139.265625 -111.539062 134.429688 -125.046875 124.765625 -134.703125 C 115.109375 -144.359375 101.601562 -149.1875 84.25 -149.1875 L 62.515625 -149.1875 L 62.515625 -39.71875 Z M 84.25 -39.71875 "/></g></g></g><g fill="#ffffff" fill-opacity="1"><g transform="translate(830.990655, 285.231338)"><g><path d="M 39.71875 -165.296875 C 31.664062 -165.296875 25.085938 -167.664062 19.984375 -172.40625 C 14.890625 -177.144531 12.34375 -183 12.34375 -189.96875 C 12.34375 -197.125 14.890625 -203.070312 19.984375 -207.8125 C 25.085938 -212.5625 31.664062 -214.9375 39.71875 -214.9375 C 47.582031 -214.9375 54.0625 -212.5625 59.15625 -207.8125 C 64.257812 -203.070312 66.8125 -197.125 66.8125 -189.96875 C 66.8125 -183 64.257812 -177.144531 59.15625 -172.40625 C 54.0625 -167.664062 47.582031 -165.296875 39.71875 -165.296875 Z M 62.515625 -149.734375 L 62.515625 0 L 16.640625 0 L 16.640625 -149.734375 Z M 62.515625 -149.734375 "/></g></g></g><g fill="#ffffff" fill-opacity="1"><g transform="translate(910.141376, 285.231338)"><g><path d="M 62.515625 -124.765625 C 67.890625 -132.992188 74.597656 -139.476562 82.640625 -144.21875 C 90.691406 -148.96875 99.640625 -151.34375 109.484375 -151.34375 L 109.484375 -102.765625 L 96.859375 -102.765625 C 85.410156 -102.765625 76.820312 -100.304688 71.09375 -95.390625 C 65.375 -90.472656 62.515625 -81.84375 62.515625 -69.5 L 62.515625 0 L 16.640625 0 L 16.640625 -149.734375 L 62.515625 -149.734375 Z M 62.515625 -124.765625 "/></g></g></g><g fill="#ffffff" fill-opacity="1"><g transform="translate(1024.976993, 285.231338)"><g><path d="M 157.78125 -77.28125 C 157.78125 -72.988281 157.507812 -68.515625 156.96875 -63.859375 L 53.125 -63.859375 C 53.84375 -54.554688 56.835938 -47.445312 62.109375 -42.53125 C 67.390625 -37.613281 73.878906 -35.15625 81.578125 -35.15625 C 93.023438 -35.15625 100.984375 -39.984375 105.453125 -49.640625 L 154.28125 -49.640625 C 151.78125 -39.796875 147.265625 -30.9375 140.734375 -23.0625 C 134.203125 -15.195312 126.015625 -9.03125 116.171875 -4.5625 C 106.335938 -0.09375 95.34375 2.140625 83.1875 2.140625 C 68.507812 2.140625 55.445312 -0.988281 44 -7.25 C 32.550781 -13.507812 23.609375 -22.453125 17.171875 -34.078125 C 10.734375 -45.703125 7.515625 -59.296875 7.515625 -74.859375 C 7.515625 -90.421875 10.6875 -104.015625 17.03125 -115.640625 C 23.382812 -127.273438 32.285156 -136.222656 43.734375 -142.484375 C 55.179688 -148.742188 68.332031 -151.875 83.1875 -151.875 C 97.675781 -151.875 110.550781 -148.832031 121.8125 -142.75 C 133.082031 -136.664062 141.894531 -127.988281 148.25 -116.71875 C 154.601562 -105.445312 157.78125 -92.300781 157.78125 -77.28125 Z M 110.8125 -89.359375 C 110.8125 -97.222656 108.128906 -103.476562 102.765625 -108.125 C 97.398438 -112.78125 90.691406 -115.109375 82.640625 -115.109375 C 74.953125 -115.109375 68.46875 -112.875 63.1875 -108.40625 C 57.914062 -103.9375 54.648438 -97.585938 53.390625 -89.359375 Z M 110.8125 -89.359375 "/></g></g></g><g fill="#ffffff" fill-opacity="1"><g transform="translate(1190.25435, 285.231338)"><g><path d="M 7.515625 -74.859375 C 7.515625 -90.421875 10.6875 -104.015625 17.03125 -115.640625 C 23.382812 -127.273438 32.238281 -136.222656 43.59375 -142.484375 C 54.957031 -148.742188 67.972656 -151.875 82.640625 -151.875 C 101.421875 -151.875 117.117188 -146.953125 129.734375 -137.109375 C 142.347656 -127.273438 150.625 -113.414062 154.5625 -95.53125 L 105.71875 -95.53125 C 101.601562 -106.976562 93.644531 -112.703125 81.84375 -112.703125 C 73.4375 -112.703125 66.726562 -109.4375 61.71875 -102.90625 C 56.707031 -96.375 54.203125 -87.023438 54.203125 -74.859375 C 54.203125 -62.703125 56.707031 -53.359375 61.71875 -46.828125 C 66.726562 -40.296875 73.4375 -37.03125 81.84375 -37.03125 C 93.644531 -37.03125 101.601562 -42.753906 105.71875 -54.203125 L 154.5625 -54.203125 C 150.625 -36.671875 142.300781 -22.894531 129.59375 -12.875 C 116.894531 -2.863281 101.242188 2.140625 82.640625 2.140625 C 67.972656 2.140625 54.957031 -0.988281 43.59375 -7.25 C 32.238281 -13.507812 23.382812 -22.453125 17.03125 -34.078125 C 10.6875 -45.703125 7.515625 -59.296875 7.515625 -74.859375 Z M 7.515625 -74.859375 "/></g></g></g><g fill="#ffffff" fill-opacity="1"><g transform="translate(1352.580337, 285.231338)"><g><path d="M 100.09375 -38.90625 L 100.09375 0 L 76.734375 0 C 60.097656 0 47.128906 -4.066406 37.828125 -12.203125 C 28.523438 -20.347656 23.875 -33.632812 23.875 -52.0625 L 23.875 -111.625 L 5.640625 -111.625 L 5.640625 -149.734375 L 23.875 -149.734375 L 23.875 -186.21875 L 69.765625 -186.21875 L 69.765625 -149.734375 L 99.8125 -149.734375 L 99.8125 -111.625 L 69.765625 -111.625 L 69.765625 -51.515625 C 69.765625 -47.046875 70.835938 -43.828125 72.984375 -41.859375 C 75.128906 -39.890625 78.707031 -38.90625 83.71875 -38.90625 Z M 100.09375 -38.90625 "/></g></g></g></g></g></svg>