<svg xmlns="http://www.w3.org/2000/svg" xmlns:xlink="http://www.w3.org/1999/xlink" width="1500" zoomAndPan="magnify" viewBox="0 0 1125 1124.99995" height="1500" preserveAspectRatio="xMidYMid meet" version="1.0"><defs><clipPath id="fc9ef448e0"><path d="M 112.5 302.421875 L 978 302.421875 L 978 888 L 112.5 888 Z M 112.5 302.421875 " clip-rule="nonzero"/></clipPath><clipPath id="71157caf9c"><path d="M 393.679688 688.054688 L 446 688.054688 L 446 726.777344 L 393.679688 726.777344 Z M 393.679688 688.054688 " clip-rule="nonzero"/></clipPath><clipPath id="7a50b262ad"><path d="M 413.039062 688.054688 L 426.601562 688.054688 C 431.734375 688.054688 436.660156 690.09375 440.292969 693.726562 C 443.921875 697.355469 445.964844 702.28125 445.964844 707.417969 C 445.964844 712.550781 443.921875 717.476562 440.292969 721.109375 C 436.660156 724.738281 431.734375 726.777344 426.601562 726.777344 L 413.039062 726.777344 C 407.90625 726.777344 402.980469 724.738281 399.347656 721.109375 C 395.71875 717.476562 393.679688 712.550781 393.679688 707.417969 C 393.679688 702.28125 395.71875 697.355469 399.347656 693.726562 C 402.980469 690.09375 407.90625 688.054688 413.039062 688.054688 Z M 413.039062 688.054688 " clip-rule="nonzero"/></clipPath><clipPath id="f39f37bb7b"><path d="M 0.679688 0.0546875 L 53 0.0546875 L 53 38.777344 L 0.679688 38.777344 Z M 0.679688 0.0546875 " clip-rule="nonzero"/></clipPath><clipPath id="2893f2f8f2"><path d="M 20.039062 0.0546875 L 33.601562 0.0546875 C 38.734375 0.0546875 43.660156 2.09375 47.292969 5.726562 C 50.921875 9.355469 52.964844 14.28125 52.964844 19.417969 C 52.964844 24.550781 50.921875 29.476562 47.292969 33.109375 C 43.660156 36.738281 38.734375 38.777344 33.601562 38.777344 L 20.039062 38.777344 C 14.90625 38.777344 9.980469 36.738281 6.347656 33.109375 C 2.71875 29.476562 0.679688 24.550781 0.679688 19.417969 C 0.679688 14.28125 2.71875 9.355469 6.347656 5.726562 C 9.980469 2.09375 14.90625 0.0546875 20.039062 0.0546875 Z M 20.039062 0.0546875 " clip-rule="nonzero"/></clipPath><clipPath id="79f4c2c2d3"><rect x="0" width="53" y="0" height="39"/></clipPath></defs><g clip-path="url(#fc9ef448e0)"><path fill="#41ae96" d="M 673.421875 817.109375 L 635.828125 846.671875 C 540.761719 921.421875 400.984375 889.957031 347.65625 781.417969 L 112.5 303.136719 L 209.308594 303.136719 C 283.355469 303.136719 350.917969 344.996094 383.351562 411.554688 L 538.421875 729.585938 C 549.710938 752.753906 566.238281 772.941406 586.957031 788.25 C 607.78125 803.632812 636.320312 816.792969 672.3125 815.769531 C 663.980469 805.269531 656.617188 794.046875 650.433594 781.433594 L 415.257812 303.136719 L 512.0625 303.136719 C 586.109375 303.136719 653.671875 344.996094 686.105469 411.554688 L 841.175781 729.585938 C 852.46875 752.753906 868.996094 772.941406 889.710938 788.25 C 911.101562 804.054688 940.644531 817.53125 978.0625 815.648438 L 938.566406 846.671875 C 855.058594 912.367188 737.003906 895.734375 673.421875 817.109375 Z M 872.042969 506.160156 L 978.167969 302.46875 L 713.042969 302.539062 L 815.382812 505.773438 C 827.046875 528.957031 860.0625 529.1875 872.042969 506.160156 Z M 872.042969 506.160156 " fill-opacity="1" fill-rule="nonzero"/></g><g clip-path="url(#71157caf9c)"><g clip-path="url(#7a50b262ad)"><g transform="matrix(1, 0, 0, 1, 393, 688)"><g clip-path="url(#79f4c2c2d3)"><g clip-path="url(#f39f37bb7b)"><g clip-path="url(#2893f2f8f2)"><path fill="#41ae96" d="M 0.679688 0.0546875 L 53.015625 0.0546875 L 53.015625 38.777344 L 0.679688 38.777344 Z M 0.679688 0.0546875 " fill-opacity="1" fill-rule="nonzero"/></g></g></g></g></g></g></svg>